<svg xmlns="http://www.w3.org/2000/svg" viewBox="0 0 512 512">
  <rect width="512" height="512" rx="115" fill="#e9e7e0"/>
  <!-- dial tick ring -->
  <g stroke="#17171a" stroke-width="7" stroke-linecap="round">
    <line x1="256" y1="84" x2="256" y2="66" transform="rotate(0 256 232)"/>
    <line x1="256" y1="84" x2="256" y2="66" transform="rotate(30 256 232)"/>
    <line x1="256" y1="84" x2="256" y2="66" transform="rotate(60 256 232)"/>
    <line x1="256" y1="84" x2="256" y2="66" transform="rotate(90 256 232)"/>
    <line x1="256" y1="84" x2="256" y2="66" transform="rotate(120 256 232)"/>
    <line x1="256" y1="84" x2="256" y2="66" transform="rotate(150 256 232)"/>
    <line x1="256" y1="84" x2="256" y2="66" transform="rotate(180 256 232)"/>
    <line x1="256" y1="84" x2="256" y2="66" transform="rotate(210 256 232)"/>
    <line x1="256" y1="84" x2="256" y2="66" transform="rotate(240 256 232)"/>
    <line x1="256" y1="84" x2="256" y2="66" transform="rotate(270 256 232)"/>
    <line x1="256" y1="84" x2="256" y2="66" transform="rotate(300 256 232)"/>
    <line x1="256" y1="84" x2="256" y2="66" transform="rotate(330 256 232)"/>
  </g>
  <!-- knob -->
  <circle cx="256" cy="232" r="126" fill="#f5f4ee" stroke="#17171a" stroke-width="11"/>
  <line x1="256" y1="204" x2="256" y2="130" transform="rotate(45 256 232)" stroke="#ff4d00" stroke-width="17" stroke-linecap="round"/>
  <circle cx="256" cy="232" r="15" fill="#17171a"/>
  <!-- function dots -->
  <g stroke="#17171a" stroke-width="6">
    <circle cx="172" cy="428" r="17" fill="#ff4d00"/>
    <circle cx="228" cy="428" r="17" fill="#d92b21"/>
    <circle cx="284" cy="428" r="17" fill="#0055d4"/>
    <circle cx="340" cy="428" r="17" fill="#eab000"/>
  </g>
</svg>
